<?xml version="1.0" standalone="no"?>
<!DOCTYPE svg PUBLIC "-//W3C//DTD SVG 20010904//EN"
 "http://www.w3.org/TR/2001/REC-SVG-20010904/DTD/svg10.dtd">
<svg version="1.0" xmlns="http://www.w3.org/2000/svg"
 width="260.000000pt" height="260.000000pt" viewBox="0 0 260.000000 260.000000"
 preserveAspectRatio="xMidYMid meet">
<metadata>
Created by potrace 1.11, written by Peter Selinger 2001-2013
</metadata>
<g transform="translate(0.000000,260.000000) scale(0.100000,-0.100000)"
fill="#000000" stroke="none">
<path d="M1048 2405 c-295 -50 -506 -223 -599 -492 -44 -126 -61 -245 -61
-418 0 -317 78 -543 242 -704 137 -136 302 -203 535 -217 55 -4 106 -12 114
-18 8 -6 50 -56 95 -111 89 -111 90 -112 171 -207 l57 -68 246 0 246 0 -44 47
c-52 53 -60 63 -155 169 -79 89 -144 160 -198 219 -32 34 -35 41 -21 50 186
117 257 192 329 350 66 141 90 276 90 495 -1 164 -7 227 -36 337 -76 293 -260
479 -547 554 -99 26 -350 34 -464 14z m372 -334 c145 -55 240 -198 268 -406
12 -86 8 -310 -7 -385 -35 -173 -110 -287 -225 -343 -126 -61 -292 -62 -420
-4 -125 58 -209 197 -240 397 -6 39 -7 280 -2 322 2 14 7 40 11 57 3 17 6 32
5 33 0 2 8 29 19 60 53 153 150 249 286 282 86 20 235 14 305 -13z"/>
</g>
</svg>
